<?xml version="1.0" encoding="UTF-8" standalone="no"?>
<svg
   overflow="scroll"
   viewBox="7.59181 13.580451 35.672845 36.00052"
   width="1837.2949"
   height="1377.9612"
   version="1.1"
   id="svg71"
   sodipodi:docname="icon-gmail.svg"
   inkscape:version="1.1 (c68e22c387, 2021-05-23)"
   xmlns:inkscape="http://www.inkscape.org/namespaces/inkscape"
   xmlns:sodipodi="http://sodipodi.sourceforge.net/DTD/sodipodi-0.dtd"
   xmlns="http://www.w3.org/2000/svg"
   xmlns:svg="http://www.w3.org/2000/svg">
  <defs
     id="defs75" />
  <sodipodi:namedview
     id="namedview73"
     pagecolor="#ffffff"
     bordercolor="#666666"
     borderopacity="1.0"
     inkscape:pageshadow="2"
     inkscape:pageopacity="0.0"
     inkscape:pagecheckerboard="0"
     showgrid="false"
     fit-margin-left="0"
     width="500px"
     fit-margin-top="0"
     fit-margin-right="0"
     fit-margin-bottom="0"
     inkscape:zoom="0.81994261"
     inkscape:cx="709.19598"
     inkscape:cy="470.15486"
     inkscape:window-width="3440"
     inkscape:window-height="1361"
     inkscape:window-x="-9"
     inkscape:window-y="-9"
     inkscape:window-maximized="1"
     inkscape:current-layer="svg71" />
  <linearGradient
     id="a"
     gradientUnits="userSpaceOnUse"
     x1="14.001"
     x2="32"
     y1="30.743999"
     y2="30.743999"
     gradientTransform="translate(-6.5717684,-0.41902914)">
    <stop
       offset="0"
       stop-color="#c8c8c8"
       id="stop43" />
    <stop
       offset="1"
       stop-color="#cdcdcd"
       id="stop45" />
  </linearGradient>
  <linearGradient
     id="b"
     gradientUnits="userSpaceOnUse"
     x1="28.665001"
     x2="50"
     y1="36.446999"
     y2="36.446999"
     gradientTransform="translate(-6.5717684,-0.41902914)">
    <stop
       offset="0"
       stop-color="#d9d9d9"
       id="stop48" />
    <stop
       offset="1"
       stop-color="#e2e2e2"
       id="stop50" />
  </linearGradient>
  <path
     d="M 46.428232,49.580972 H 4.4282321 a 3,3 0 0 1 -3,-3 v -30 a 3,3 0 0 1 3,-3 H 46.428232 a 3,3 0 0 1 3,3 v 30 a 3,3 0 0 1 -3,3 z"
     fill="#eaeaea"
     id="path53" />
  <path
     d="m 7.4282321,49.580972 h -3 a 3,3 0 0 1 -3,-3 v -30 a 3,3 0 1 1 6,0 z"
     fill="#d54c3f"
     id="path55" />
  <path
     d="m 43.428232,49.580972 h 3 a 3,3 0 0 0 3,-3 v -30 a 3,3 0 1 0 -6,0 z"
     fill="#b63524"
     id="path57" />
  <path
     d="m 48.146232,19.040972 a 3.0005206,3.0005206 0 1 0 -3.436,-4.92 l -19.28,14.037 -0.002,10e-4 -0.002,-10e-4 -19.2799999,-14.037 a 3.0005206,3.0005206 0 0 0 -3.436,4.92 l -0.08,-0.059 22.7979999,16.599 m 22.799,-16.599 -22.799,16.599"
     fill="#de5145"
     id="path59" />
  <path
     d="m 46.428232,13.580972 c -0.639,0 -1.232,0.2 -1.718,0.54 l -19.28,14.037 -0.002,10e-4 -0.002,-10e-4 -19.2799999,-14.037 a 2.988,2.988 0 0 0 -1.718,-0.54 z"
     fill="#efefef"
     id="path61" />
  <path
     d="m 7.4292321,23.768972 -5.056,-5.008 -0.002,0.004 c 0.106,0.1 0.219,0.192 0.339,0.276 l -0.08,-0.059 4.8,3.495 -10e-4,1.328"
     fill="#c64132"
     id="path63" />
  <path
     d="m 22.096232,38.171972 -14.6679999,11.409 0.001,-25.937 14.6639999,14.524"
     fill="#e3e3e3"
     id="path65" />
  <path
     d="m 22.096232,38.171972 3.332,-2.591 -17.9989999,-13.104 v 1.167 l 14.6639999,14.524 z"
     fill="url(#a)"
     id="path67"
     style="fill:url(#a)" />
  <path
     d="m 33.489232,49.580972 h 9.939 v -27.105 l -18,13.105 -3.335,2.587 z"
     fill="url(#b)"
     id="path69"
     style="fill:url(#b)" />
</svg>
