<?xml version="1.0" encoding="UTF-8" standalone="no"?>
<svg
   viewBox="-0.23294661979148623 0 125.23294661979149 79.04777140278348"
   width="2500"
   height="1575"
   version="1.1"
   id="svg23"
   sodipodi:docname="logo-net.svg"
   inkscape:version="1.1 (c68e22c387, 2021-05-23)"
   xmlns:inkscape="http://www.inkscape.org/namespaces/inkscape"
   xmlns:sodipodi="http://sodipodi.sourceforge.net/DTD/sodipodi-0.dtd"
   xmlns="http://www.w3.org/2000/svg"
   xmlns:svg="http://www.w3.org/2000/svg">
  <defs
     id="defs27" />
  <sodipodi:namedview
     id="namedview25"
     pagecolor="#ffffff"
     bordercolor="#666666"
     borderopacity="1.0"
     inkscape:pageshadow="2"
     inkscape:pageopacity="0.0"
     inkscape:pagecheckerboard="0"
     showgrid="false"
     inkscape:zoom="0.51315749"
     inkscape:cx="1205.283"
     inkscape:cy="889.59044"
     inkscape:window-width="3440"
     inkscape:window-height="1361"
     inkscape:window-x="-9"
     inkscape:window-y="-9"
     inkscape:window-maximized="1"
     inkscape:current-layer="svg23" />
  <g
     fill="#621ee5"
     id="g21">
    <path
       d="M6.02 40.25c-.32-.34-.71-.61-1.14-.8s-.89-.28-1.36-.28c-.47-.01-.93.09-1.36.27-.43.19-.82.46-1.14.8-.33.33-.59.72-.76 1.15-.17.44-.26.9-.26 1.36-.01.47.08.93.26 1.36s.44.82.77 1.15a3.339 3.339 0 0 0 2.5 1.05 3.456 3.456 0 0 0 2.5-1.05c.34-.32.6-.71.78-1.14s.27-.89.27-1.36-.09-.93-.27-1.36c-.19-.44-.45-.83-.79-1.15zM47.87 32.13c-.05 2.24.06 4.49.32 6.72h-.12c-.28-.55-.9-1.57-1.85-3.06L23.42 0H16.5v45.69h5.32V12.66c.06-2.09-.03-4.18-.25-6.27h.2c.38 1 .87 1.96 1.45 2.86l23.42 36.44h6.55V0h-5.32zM89.26 40.67h-18.8V24.84h16.45v-4.82H70.46V4.84h17.65V0h-23.1v45.69h24.22zM93.33 0v4.84h13.1v40.85h5.32V4.84H125V0zM41.19 57.05a10.04 10.04 0 0 0-3.52 2.37c-1.02 1.09-1.82 2.37-2.34 3.78s-.75 2.9-.69 4.39c-.1 2.76.86 5.46 2.7 7.52.92.97 2.04 1.72 3.28 2.22s2.57.72 3.9.66c2 .07 3.99-.35 5.8-1.23l.02-2.33c-1.66.97-3.55 1.45-5.47 1.4-1.03.04-2.06-.14-3.01-.53s-1.81-.99-2.51-1.75a8.72 8.72 0 0 1-2.1-6.14c-.12-2.37.69-4.69 2.25-6.47.74-.82 1.65-1.46 2.66-1.9a7.68 7.68 0 0 1 3.21-.61c1.75-.03 3.47.4 5 1.25v-2.51a12.23 12.23 0 0 0-5-.88c-1.43-.02-2.86.23-4.18.76zM66.12 64.21a6.719 6.719 0 0 0-5.22-2.08c-1.03-.05-2.05.12-3.01.49s-1.83.93-2.57 1.64c-.72.8-1.27 1.73-1.63 2.75s-.51 2.09-.44 3.17c-.1 2.05.61 4.06 1.97 5.59.68.73 1.5 1.31 2.42 1.7.92.38 1.91.57 2.9.53 1.01.03 2.02-.16 2.96-.55s1.78-.98 2.47-1.73a8.06 8.06 0 0 0 2.02-5.76c.12-2.1-.55-4.15-1.87-5.75zm-1.83 10.27a4.394 4.394 0 0 1-3.57 1.51c-.69.03-1.37-.1-2-.36-.63-.27-1.19-.67-1.65-1.19a6.126 6.126 0 0 1-1.35-4.21c-.09-1.57.39-3.12 1.35-4.36.45-.52 1.01-.93 1.64-1.21.63-.27 1.32-.4 2-.37.68-.04 1.35.09 1.97.36s1.17.68 1.61 1.2a6.668 6.668 0 0 1 1.25 4.34c.1 1.52-.34 3.05-1.25 4.29zM75.88 63.23c-.75.67-1.3 1.54-1.57 2.51V62.6h-2.5v15.04h2.5v-7.67c-.08-1.39.28-2.78 1.02-3.96.27-.43.63-.79 1.07-1.04s.93-.4 1.43-.41c.64-.05 1.28.12 1.82.48v-2.48c-.46-.15-.94-.22-1.42-.2-.86-.01-1.69.3-2.35.87zM94.28 69.44c.12-1.91-.45-3.79-1.6-5.31-.57-.64-1.27-1.15-2.06-1.48s-1.64-.48-2.49-.43c-.94-.03-1.88.16-2.75.54-.86.38-1.63.95-2.25 1.67a8.217 8.217 0 0 0-1.97 5.71c-.13 2.08.52 4.14 1.82 5.76.63.69 1.41 1.23 2.27 1.59s1.8.51 2.73.47c1.85.09 3.68-.41 5.22-1.43v-2.26a7.506 7.506 0 0 1-4.65 1.68c-.65.04-1.31-.06-1.92-.3s-1.17-.59-1.63-1.06a5.58 5.58 0 0 1-1.27-3.86H94.3zm-10.57-.7c.13-1.19.65-2.31 1.47-3.18a3.86 3.86 0 0 1 2.88-1.23c.52-.03 1.03.06 1.51.26s.9.5 1.24.89c.7.93 1.05 2.07 1 3.23z"
       id="path19" />
  </g>
  <path
     style="fill:#ffffff;stroke-width:1.37795"
     d="M 59.396145,919.66976 C 37.055761,913.66209 17.729725,894.63377 10.801333,871.82355 8.4098092,863.94998 8.0349183,859.94678 8.602254,848.34113 9.4301013,831.40636 12.685523,821.93608 21.850762,809.80018 48.060516,775.09527 94.64642,771.64192 125.7057,802.10155 c 21.72805,21.30857 27.51126,52.3539 14.82032,79.55821 -5.14289,11.02427 -19.34899,25.98035 -30.14145,31.73267 -15.450226,8.23489 -34.834565,10.62135 -50.988425,6.27733 z"
     id="path164"
     transform="matrix(0.05018906,0,0,0.05018906,-0.35279982,0)" />
  <path
     style="fill:#ffffff;stroke-width:1.37795"
     d="M 336.22047,454.71154 V -0.02572712 L 404.69108,0.33162459 473.16169,0.68897638 696.1769,350.68898 c 236.86773,371.74012 255.8734,401.72859 263.10059,415.13852 2.53025,4.69485 5.37556,8.5464 6.3229,8.55902 2.19705,0.0292 2.12099,-3.15934 -0.64041,-26.84715 -2.01301,-17.26788 -2.29997,-57.48412 -2.73592,-383.41535 L 961.73706,0 h 52.39914 52.3992 v 454.72441 454.72441 l -65.1082,-0.063 -65.1083,-0.063 L 711.02362,558.61199 C 587.11122,365.72094 479.98842,198.79304 472.97293,187.66113 c -12.537,-19.8933 -28.17918,-49.65074 -30.015,-57.10011 -0.63744,-2.58658 -1.82395,-3.78937 -3.73809,-3.78937 -2.68763,0 -2.7642,0.53002 -1.84143,12.74607 0.52954,7.01033 1.53054,20.49704 2.22444,29.97047 0.71499,9.76133 1.27906,173.79983 1.30184,378.59252 l 0.0402,361.36811 h -52.3622 -52.36221 z"
     id="path203"
     transform="matrix(0.05018906,0,0,0.05018906,-0.35279982,0)" />
  <path
     style="fill:#ffffff;stroke-width:1.37795"
     d="M 1303.5433,454.72441 V 0 h 229.4291 229.4292 v 48.228346 48.228347 h -176.378 -176.3779 V 248.0315 399.6063 h 163.9763 163.9764 v 47.53937 47.53937 H 1573.6162 1409.634 l 0.3503,158.12008 0.3503,158.12008 187.0571,0.34942 187.0571,0.34943 v 48.91238 48.91239 h -240.4527 -240.4528 z"
     id="path242"
     transform="matrix(0.05018906,0,0,0.05018906,-0.35279982,0)" />
  <path
     style="fill:#ffffff;stroke-width:1.37795"
     d="M 2128.937,502.95276 V 96.456693 H 1998.0315 1867.126 V 48.228346 0 h 314.8622 314.8622 V 48.228346 96.456693 H 2364.5669 2232.2835 V 502.95276 909.44882 h -51.6733 -51.6732 z"
     id="path281"
     transform="matrix(0.05018906,0,0,0.05018906,-0.35279982,0)" />
  <path
     style="fill:#ffffff;stroke-width:1.37795"
     d="m 1735.5315,1551.4244 c -33.0771,-4.7701 -65.131,-24.6558 -83.0498,-51.5228 -18.7536,-28.1186 -26.2469,-53.3667 -27.4599,-92.5236 -1.3842,-44.6846 6.0375,-74.7597 26.01,-105.4002 14.856,-22.7911 32.9015,-38.9568 55.0893,-49.3507 19.8783,-9.3119 31.459,-11.6675 57.6584,-11.7281 19.7468,-0.046 24.1857,0.3657 33.7599,3.1285 22.5506,6.5072 43.4285,19.6813 56.1536,35.433 8.4512,10.4614 20.7857,35.2892 25.0478,50.4182 4.8275,17.1361 6.2986,30.1571 6.2986,55.7525 v 22.6365 h -105.6168 -105.6168 l 0.9148,13.0138 c 2.1301,30.3037 15.7336,59.2023 34.5141,73.3197 18.6115,13.9906 34.2391,19.0536 58.6787,19.0107 19.0798,-0.034 32.6801,-2.0328 48.2283,-7.0901 12.4761,-4.058 29.7246,-12.5263 38.8126,-19.0554 3.6664,-2.6341 6.9749,-4.7892 7.352,-4.7892 0.3772,0 0.6858,9.4878 0.6858,21.0841 v 21.0841 l -9.9901,5.673 c -19.0832,10.8365 -41.4909,18.1396 -64.3832,20.9837 -13.5597,1.6846 -41.1467,1.6443 -53.0873,-0.078 z m 101.2795,-190.0796 c 0,-12.4212 -3.6383,-26.6695 -10.3614,-40.5771 -7.3159,-15.1341 -11.9644,-20.8539 -22.8614,-28.1306 -12.0052,-8.0168 -23.2502,-11.141 -40.0994,-11.141 -20.8532,0 -35.7746,4.7589 -51.0095,16.2687 -17.4827,13.208 -33.3936,41.4985 -37.5426,66.7529 l -0.849,5.1673 h 81.3617 81.3616 z"
     id="path320"
     transform="matrix(0.05018906,0,0,0.05018906,-0.35279982,0)" />
  <path
     style="fill:#ffffff;stroke-width:1.37795"
     d="m 1438.5827,1397.2441 v -148.8189 h 24.0883 24.0883 l 0.3703,31.3327 0.3704,31.3326 3.9744,-10.1355 c 15.6483,-39.907 49.4013,-62.0028 87.0242,-56.9689 6.4571,0.8639 12.3419,1.9427 13.0775,2.3973 0.7787,0.4813 1.3373,10.5105 1.3373,24.0102 v 23.1837 l -8.6122,-3.5169 c -16.6545,-6.8009 -39.7106,-5.3484 -54.7195,3.4475 -14.8707,8.7147 -26.8135,25.0522 -34.7892,47.5906 -7.6431,21.5986 -7.9815,26.6732 -7.9815,119.7119 v 85.2526 h -24.1141 -24.1142 z"
     id="path359"
     transform="matrix(0.05018906,0,0,0.05018906,-0.35279982,0)" />
  <path
     style="fill:#ffffff;stroke-width:1.37795"
     d="m 1182.2835,1550.9484 c -42.5696,-8.9817 -77.6747,-36.405 -97.0971,-75.85 -11.4621,-23.2784 -15.5082,-40.3616 -16.5896,-70.0444 -1.1835,-32.4825 2.5063,-54.9181 13.1144,-79.7402 13.9751,-32.7006 35.8234,-56.1291 66.2375,-71.0282 25.7431,-12.6109 43.4397,-16.0532 77.7225,-15.1186 26.5991,0.7251 32.7932,1.8571 52.1936,9.5384 52.1881,20.6633 83.5643,74.4426 83.5486,143.2037 -0.01,33.4836 -4.5813,54.9327 -17.1822,80.5792 -19.0707,38.8141 -48.9383,64.0729 -89.7471,75.8985 -10.8175,3.1347 -15.2584,3.6054 -37.7518,4.002 -17.8887,0.3153 -28.1636,-0.1143 -34.4488,-1.4404 z m 68.6314,-41.0253 c 24.4506,-8.7399 41.0565,-25.0724 52.2581,-51.3978 8.4408,-19.8372 9.333,-25.738 9.2657,-61.2812 -0.059,-31.3564 -0.1815,-32.772 -3.8585,-44.6985 -9.4932,-30.7917 -25.3465,-51.5229 -47.9058,-62.646 -16.0873,-7.932 -28.1502,-10.2395 -48.765,-9.3284 -18.141,0.8019 -26.8133,2.9137 -40.7166,9.9153 -23.0919,11.6289 -39.1493,32.1344 -48.575,62.031 -9.36,29.6879 -8.6535,68.6925 1.7612,97.2293 11.7721,32.2564 34.1996,53.6024 65.0357,61.8994 8.3804,2.2549 13.6007,2.6444 30.7625,2.2957 18.1527,-0.3688 21.8951,-0.8581 30.7377,-4.0188 z"
     id="path398"
     transform="matrix(0.05018906,0,0,0.05018906,-0.35279982,0)" />
  <path
     style="fill:#ffffff;stroke-width:1.37795"
     d="m 861.90945,1552.0978 c -36.11296,-5.1521 -70.41473,-20.8306 -98.52362,-45.0326 -28.70738,-24.7173 -52.06598,-66.6392 -61.19158,-109.8211 -3.9931,-18.8952 -5.61568,-50.0192 -3.82528,-73.376 3.95795,-51.6339 20.57514,-92.8567 52.9078,-131.25 27.49912,-32.6537 66.70381,-55.8653 110.31704,-65.3145 26.79548,-5.8055 61.9341,-6.8385 91.9241,-2.7025 12.45628,1.7178 37.71608,8.0393 48.59819,12.1621 l 7.9233,3.0017 v 23.9258 23.9258 l -11.36814,-5.3255 c -22.5804,-10.578 -42.3042,-15.6338 -70.50964,-18.0739 -78.30435,-6.774 -141.61746,33.6129 -168.96407,107.7809 -6.98581,18.9465 -9.68154,35.1252 -10.53688,63.2382 -0.92889,30.5305 1.36811,49.706 8.52901,71.2009 17.43771,52.3428 53.04658,87.4789 101.96386,100.61 12.91223,3.4661 15.64422,3.7005 43.40552,3.723 25.64899,0.021 31.56823,-0.3944 44.09448,-3.0934 18.79292,-4.0494 35.74072,-9.7603 49.51081,-16.6838 6.08185,-3.0579 11.38175,-5.5598 11.77755,-5.5598 0.3957,0 0.7195,9.8592 0.7195,21.9094 v 21.9094 l -11.83026,4.9523 c -14.8882,6.2323 -31.06597,11.1848 -48.38933,14.8133 -11.07888,2.3205 -19.6808,2.9034 -47.94968,3.249 -18.94685,0.2316 -36.30906,0.1557 -38.58268,-0.1687 z"
     id="path437"
     transform="matrix(0.05018906,0,0,0.05018906,-0.35279982,0)" />
</svg>
