<?xml version="1.0" encoding="UTF-8" standalone="no"?>
<svg
   height="1024pt"
   viewBox=".5 -.2 1023 1024.1"
   width="1024pt"
   version="1.1"
   id="svg953"
   sodipodi:docname="logo-nextjs.svg"
   inkscape:version="1.1 (c68e22c387, 2021-05-23)"
   xmlns:inkscape="http://www.inkscape.org/namespaces/inkscape"
   xmlns:sodipodi="http://sodipodi.sourceforge.net/DTD/sodipodi-0.dtd"
   xmlns="http://www.w3.org/2000/svg"
   xmlns:svg="http://www.w3.org/2000/svg">
  <defs
     id="defs957" />
  <sodipodi:namedview
     id="namedview955"
     pagecolor="#ffffff"
     bordercolor="#666666"
     borderopacity="1.0"
     inkscape:pageshadow="2"
     inkscape:pageopacity="0.0"
     inkscape:pagecheckerboard="0"
     inkscape:document-units="pt"
     showgrid="false"
     inkscape:zoom="0.6394043"
     inkscape:cx="682.66667"
     inkscape:cy="679.53876"
     inkscape:window-width="3440"
     inkscape:window-height="1361"
     inkscape:window-x="-9"
     inkscape:window-y="-9"
     inkscape:window-maximized="1"
     inkscape:current-layer="svg953" />
  <path
     d="m478.5.6c-2.2.2-9.2.9-15.5 1.4-145.3 13.1-281.4 91.5-367.6 212-48 67-78.7 143-90.3 223.5-4.1 28.1-4.6 36.4-4.6 74.5s.5 46.4 4.6 74.5c27.8 192.1 164.5 353.5 349.9 413.3 33.2 10.7 68.2 18 108 22.4 15.5 1.7 82.5 1.7 98 0 68.7-7.6 126.9-24.6 184.3-53.9 8.8-4.5 10.5-5.7 9.3-6.7-.8-.6-38.3-50.9-83.3-111.7l-81.8-110.5-102.5-151.7c-56.4-83.4-102.8-151.6-103.2-151.6-.4-.1-.8 67.3-1 149.6-.3 144.1-.4 149.9-2.2 153.3-2.6 4.9-4.6 6.9-8.8 9.1-3.2 1.6-6 1.9-21.1 1.9h-17.3l-4.6-2.9c-3-1.9-5.2-4.4-6.7-7.3l-2.1-4.5.2-200.5.3-200.6 3.1-3.9c1.6-2.1 5-4.8 7.4-6.1 4.1-2 5.7-2.2 23-2.2 20.4 0 23.8.8 29.1 6.6 1.5 1.6 57 85.2 123.4 185.9s157.2 238.2 201.8 305.7l81 122.7 4.1-2.7c36.3-23.6 74.7-57.2 105.1-92.2 64.7-74.3 106.4-164.9 120.4-261.5 4.1-28.1 4.6-36.4 4.6-74.5s-.5-46.4-4.6-74.5c-27.8-192.1-164.5-353.5-349.9-413.3-32.7-10.6-67.5-17.9-106.5-22.3-9.6-1-75.7-2.1-84-1.3zm209.4 309.4c4.8 2.4 8.7 7 10.1 11.8.8 2.6 1 58.2.8 183.5l-.3 179.8-31.7-48.6-31.8-48.6v-130.7c0-84.5.4-132 1-134.3 1.6-5.6 5.1-10 9.9-12.6 4.1-2.1 5.6-2.3 21.3-2.3 14.8 0 17.4.2 20.7 2z"
     id="path949" />
  <path
     d="m784.3 945.1c-3.5 2.2-4.6 3.7-1.5 2 2.2-1.3 5.8-4 5.2-4.1-.3 0-2 1-3.7 2.1zm-6.9 4.5c-1.8 1.4-1.8 1.5.4.4 1.2-.6 2.2-1.3 2.2-1.5 0-.8-.5-.6-2.6 1.1zm-5 3c-1.8 1.4-1.8 1.5.4.4 1.2-.6 2.2-1.3 2.2-1.5 0-.8-.5-.6-2.6 1.1zm-5 3c-1.8 1.4-1.8 1.5.4.4 1.2-.6 2.2-1.3 2.2-1.5 0-.8-.5-.6-2.6 1.1zm-7.6 4c-3.8 2-3.6 2.8.2.9 1.7-.9 3-1.8 3-2 0-.7-.1-.6-3.2 1.1z"
     id="path951" />
  <path
     style="fill:#000000;stroke-width:1.56396"
     d="m 621.67239,1362.6816 c -80.232,-7.2076 -164.74193,-31.1365 -239.28522,-67.7534 C 182.58282,1196.781 43.031359,1007.1912 8.5661184,787.068 2.3565129,747.40838 1.1303069,725.189 2.0329612,668.6844 2.8665924,616.50055 3.7371208,606.34743 11.025233,563.80603 37.676703,408.2389 123.50333,260.83051 246.8688,158.7415 353.55533,70.454857 478.52805,18.036985 616.19855,3.8318551 655.3562,-0.20851435 737.60888,1.4485055 775.55294,7.0421263 888.45216,23.685455 984.35255,61.64881 1076.0015,125.97842 c 144.2303,101.23712 246.3634,260.96358 277.4578,433.91772 9.0838,50.52605 9.4849,55.74836 9.4879,123.5525 0,67.45188 -0.8873,78.53565 -10.3012,128.24437 -19.6067,103.53059 -67.8637,208.79539 -134.0735,292.45969 -43.7584,55.2942 -98.2682,106.1644 -153.9209,143.644 l -12.132,8.1703 -25.5174,-38.7632 C 998.18847,1173.4334 780.955,844.37809 651.40052,648.25964 515.05739,441.86459 510.5509,435.22444 504.78589,432.22803 c -3.9048,-2.02956 -10.60701,-2.81803 -28.56138,-3.36006 -27.65844,-0.83502 -34.23735,0.50303 -42.81572,8.70799 l -6.06968,5.80548 -1.15409,268.46271 -1.15408,268.46271 3.58632,6.38102 c 1.97248,3.50955 6.22963,8.21282 9.46034,10.4517 5.82278,4.03522 6.09214,4.06602 30.89263,3.54042 27.5364,-0.5837 29.94584,-1.35422 37.10591,-11.86641 3.02432,-4.44021 3.34061,-7.75493 4.30088,-45.07362 0.57008,-22.15453 1.11976,-109.66508 1.22153,-194.46789 0.10181,-84.80282 0.62962,-156.19493 1.17296,-158.64915 0.9663,-4.36447 1.16287,-4.21028 8.97265,7.0378 13.42849,19.34039 116.52246,171.43075 190.66643,281.28238 55.06652,81.58652 85.53341,124.73419 141.35321,200.18629 66.17334,89.4472 147.1581,198.516 150.6161,202.847 3.0605,3.8331 -57.20919,31.3527 -101.91512,46.5352 -45.91539,15.5933 -107.65217,29.0296 -154.66866,33.662 -14.75976,1.4542 -111.26368,1.8429 -126.12373,0.508 z M 928.6632,423.58544 c -1.90534,-3.39009 -5.95429,-7.71254 -8.99767,-9.60544 -5.0809,-3.16018 -7.51584,-3.44163 -29.77473,-3.44163 -21.42856,0 -24.85748,0.36293 -29.55168,3.12791 -7.13187,4.20082 -11.19905,9.99248 -12.78607,18.20733 -0.72424,3.74878 -1.34744,84.70631 -1.3849,179.90562 l -0.0681,173.08966 42.61779,65.28093 42.61779,65.28094 0.39592,-242.84075 0.39592,-242.84076 z"
     id="path996"
     transform="matrix(0.75007322,0,0,0.75007322,-0.05,-0.2)" />
  <path
     style="fill:#ffffff;stroke-width:1.56396"
     d="M 615.41657,1362.0621 C 546.82832,1354.9834 471.58854,1335.1611 409.7564,1307.8799 195.1237,1213.1809 44.711254,1017.9204 8.5661184,787.068 2.3452756,747.33661 1.1167276,725.03157 1.9974098,667.80909 2.8796316,610.48659 5.4745098,586.33755 15.850392,538.88734 60.147068,336.31313 192.8105,165.71226 378.26968,72.827917 454.25367,34.772513 530.4343,12.68119 616.19855,3.8318551 655.41253,-0.21432645 737.60546,1.4480914 775.65536,7.0569971 867.72149,20.628393 947.33062,48.074101 1025.173,93.079648 c 79.3854,45.897702 156.6133,115.936152 210.0875,190.529692 68.6518,95.76525 107.1981,193.38004 124.7451,315.90477 3.3037,23.06851 4.801,112.70663 2.3701,141.89423 -10.2888,123.53944 -57.7452,248.20331 -132.4523,347.94046 -23.303,31.1105 -36.3237,45.9844 -67.0387,76.5802 -30.2883,30.1707 -56.7589,52.6384 -89.1242,75.6467 -16.2251,11.5343 -20.6003,13.9824 -22.116,12.3749 -1.0393,-1.1022 -97.08477,-146.279 -213.43451,-322.61498 C 508.00685,430.8901 511.32068,435.83999 504.19716,432.42012 c -4.80522,-2.30689 -10.82392,-3.05649 -28.75462,-3.58121 -27.14874,-0.79448 -33.76914,0.61102 -42.09473,8.93661 l -5.95877,5.95877 -1.16638,268.30883 -1.16638,268.30883 3.5703,6.35251 c 1.96368,3.49387 6.33906,8.18477 9.72309,10.42422 6.07876,4.02272 6.45045,4.06542 30.89599,3.54632 26.95679,-0.5723 29.07792,-1.22666 36.59737,-11.28973 2.92343,-3.91233 3.31908,-7.33552 4.23673,-36.65633 0.55671,-17.78755 1.16781,-105.53413 1.35801,-194.9924 0.1902,-89.45827 0.7904,-164.65055 1.33374,-167.09395 l 0.98794,-4.44256 5.33203,7.57047 c 7.91643,11.23985 114.67997,168.60048 182.33798,268.75107 91.35092,135.22198 85.54372,127.1205 235.25198,328.19413 35.7677,48.0397 65.99806,88.6834 67.17856,90.3194 2.0174,2.7958 0.5142,3.7629 -25.02332,16.0987 -45.16632,21.8175 -80.85171,34.769 -129.2664,46.9152 -29.42305,7.3816 -74.85408,15.4723 -101.77416,18.1246 -18.86799,1.859 -114.06328,1.7788 -132.37955,-0.1115 z M 932.1176,671.64131 c 0,-266.53893 0.81321,-245.77969 -9.99984,-255.27365 -6.69148,-5.8752 -15.74448,-7.30554 -39.9316,-6.30898 -23.63802,0.97392 -31.99323,6.43835 -34.66223,22.66953 -0.68059,4.13892 -1.27938,85.04315 -1.33066,179.78718 l -0.0932,172.26184 41.83581,64.24772 c 23.0097,35.33623 42.36365,64.26514 43.00879,64.28644 0.64513,0.0213 1.17296,-108.73023 1.17296,-241.67008 z"
     id="path1035"
     transform="matrix(0.75007322,0,0,0.75007322,-0.05,-0.2)" />
</svg>
