<?xml version="1.0" encoding="UTF-8" standalone="no"?>
<!-- Generator: Adobe Illustrator 22.1.0, SVG Export Plug-In . SVG Version: 6.00 Build 0)  -->

<svg
   version="1.1"
   id="Layer_1"
   x="0px"
   y="0px"
   viewBox="0 0 2466.8 2466.8"
   xml:space="preserve"
   sodipodi:docname="logo-firebase.svg"
   width="2466.8"
   height="2466.8"
   inkscape:version="1.1 (c68e22c387, 2021-05-23)"
   xmlns:inkscape="http://www.inkscape.org/namespaces/inkscape"
   xmlns:sodipodi="http://sodipodi.sourceforge.net/DTD/sodipodi-0.dtd"
   xmlns="http://www.w3.org/2000/svg"
   xmlns:svg="http://www.w3.org/2000/svg"><defs
   id="defs2894" /><sodipodi:namedview
   id="namedview2892"
   pagecolor="#ffffff"
   bordercolor="#666666"
   borderopacity="1.0"
   inkscape:pageshadow="2"
   inkscape:pageopacity="0.0"
   inkscape:pagecheckerboard="0"
   showgrid="false"
   width="1782px"
   inkscape:zoom="0.50048987"
   inkscape:cx="444.56444"
   inkscape:cy="582.42937"
   inkscape:window-width="3440"
   inkscape:window-height="1361"
   inkscape:window-x="-9"
   inkscape:window-y="-9"
   inkscape:window-maximized="1"
   inkscape:current-layer="Layer_1" />
<style
   type="text/css"
   id="style2881">
	.st0{fill:#FFA000;}
	.st1{fill:#F57F17;}
	.st2{fill:#FFCA28;}
</style>
<path
   class="st0"
   d="m 1559.0183,889.00196 -246.7,229.70004 -229,-462.10004 118.3,-265.7 c 29.9,-53 78.8,-53.7 108.7,0 z"
   id="path2883" />
<path
   class="st1"
   d="M 1312.4183,1118.602 389.61827,1976.902 1083.4183,656.60196 Z"
   id="path2885" />
<path
   class="st2"
   d="m 1829.5183,537.70196 c 44.2,-42.1 89.7,-27.9 101.2,31.9 l 239.9,1395.70004 -795.7,477.7 c -27.9,15.6 -101.9,21.7 -101.9,21.7 0,0 -67.3,-8.2 -93.1,-22.4 l -790.30003,-465.4 z"
   id="path2887" />
<path
   class="st0"
   d="M 1083.4183,656.60196 389.61827,1976.902 698.81827,47.101958 c 11.6,-59.8 45.5,-65.9 76.1,-12.9 z"
   id="path2889" />
</svg>
